<svg id="Layer_1" data-name="Layer 1" xmlns="http://www.w3.org/2000/svg" viewBox="0 0 1000 278">
    <defs>
        <style>
            .cls-1 {
                fill: #171E2E;
            }

            .cls-2 {
                opacity: 0.14;
            }
        </style>
    </defs>
    <title>Artboard 1 copy</title>
    <path class="cls-1"
        d="M146.12,234a95.28,95.28,0,0,1-78.26-78.42,22.49,22.49,0,0,0,2.64.91l18.45,5.11A76.17,76.17,0,0,0,140,212.88l5,18.18A18.7,18.7,0,0,0,146.12,234Z" />
    <path class="cls-1"
        d="M213,59.56l-.53.18-24.14,8.94a76.17,76.17,0,0,0-93,34.48L70.69,112.3A95.33,95.33,0,0,1,213,59.56Z" />
    <path class="cls-1"
        d="M229.26,207.41a95,95,0,0,1-40.18,23.94l9.08-24.47A76.19,76.19,0,0,0,233,113l8.86-23.88c.08-.2.14-.43.22-.63A95.34,95.34,0,0,1,229.26,207.41Z" />
    <path class="cls-1"
        d="M227.05,83.62,223,94.68,178.65,214.2l-4.91,13.24a7.11,7.11,0,0,1-13.5-.57l-3-10.95L141.8,160.34l0-.18a.52.52,0,0,0-.34-.36L86,144.43,74.7,141.31a7.11,7.11,0,0,1-.59-13.5l13.68-5.07,119-44.11,11.13-4.13a7.51,7.51,0,0,1,2.49-.45,7.07,7.07,0,0,1,5.27,2.39,4.37,4.37,0,0,1,.55.67A7,7,0,0,1,227.05,83.62Z" />
    <g class="cls-2">
        <path class="cls-1"
            d="M227.05,83.62,223,94.68,178.65,214.2l-4.91,13.24a7.11,7.11,0,0,1-13.5-.57l-3-10.95L141.8,160.34l83.9-83.9a4.37,4.37,0,0,1,.55.67A7,7,0,0,1,227.05,83.62Z" />
    </g>
    <path class="cls-1" d="M320,185.78V90h14.35v81.3h41.85v14.48Z" />
    <path class="cls-1"
        d="M452.18,176.62A37.18,37.18,0,0,1,424.94,188a39,39,0,0,1-38.52-38.52,37.18,37.18,0,0,1,11.42-27.23,36.74,36.74,0,0,1,27.1-11.42,39,39,0,0,1,38.66,38.66A36.74,36.74,0,0,1,452.18,176.62Zm-10.1-44.24a24.23,24.23,0,0,0-34.27,34.27,24.23,24.23,0,0,0,34.27-34.27Z" />
    <path class="cls-1"
        d="M544.24,172.77A38.32,38.32,0,0,1,530.69,184,37.83,37.83,0,0,1,513.55,188,39,39,0,0,1,475,149.52a37.18,37.18,0,0,1,11.42-27.23,36.74,36.74,0,0,1,27.1-11.42,37.11,37.11,0,0,1,17.34,4.32,41.87,41.87,0,0,1,14.15,12L532.94,135q-8.1-9.7-19.4-9.7a24.23,24.23,0,0,0-17.14,41.31,23.32,23.32,0,0,0,17.14,7q11.16,0,19.4-9.83l10.89,7Z" />
    <path class="cls-1"
        d="M620.35,185.78v-10a34.77,34.77,0,0,1-52.47.53,38.31,38.31,0,0,1-10.23-26.83,38.21,38.21,0,0,1,10.36-27,31.69,31.69,0,0,1,11.62-8.83,35.47,35.47,0,0,1,14.28-2.86q15.81,0,26.44,12.22v-9.83h14.48v72.53Zm-7-53.4A24.24,24.24,0,0,0,579,166.65a24.24,24.24,0,0,0,34.27-34.27Z" />
    <path class="cls-1" d="M652.1,185.78V90h14.35v95.78Z" />
    <path class="cls-1"
        d="M757.78,152.71q-.2,1.73-.46,4h-61a23.17,23.17,0,0,0,8,11.69,23.75,23.75,0,0,0,15,5.31q11.42,0,19.4-9.83l12.09,7.84a41.82,41.82,0,0,1-14.15,12A37.11,37.11,0,0,1,719.32,188a39,39,0,0,1-38.52-38.52,37.18,37.18,0,0,1,11.42-27.23,36.74,36.74,0,0,1,27.1-11.42A39,39,0,0,1,758,149.52,27.92,27.92,0,0,1,757.78,152.71Zm-61.44-10.49h46.1a23.58,23.58,0,0,0-8.1-11.69,23.08,23.08,0,0,0-15-5.18,23.87,23.87,0,0,0-23,16.87Z" />
    <path class="cls-1"
        d="M788.6,183a9.17,9.17,0,0,1-6.84,2.79A9,9,0,0,1,775,183a9.79,9.79,0,0,1,0-13.55,9,9,0,0,1,6.71-2.79,9.17,9.17,0,0,1,6.84,2.79,9.79,9.79,0,0,1,0,13.55Z" />
    <path class="cls-1"
        d="M868.37,185.78v-10a34.77,34.77,0,0,1-52.47.53,38.31,38.31,0,0,1-10.23-26.83,38.21,38.21,0,0,1,10.36-27,31.68,31.68,0,0,1,11.62-8.83,35.47,35.47,0,0,1,14.28-2.86q15.81,0,26.44,12.22v-9.83h14.48v72.53Zm-7-53.4a24.24,24.24,0,0,0-34.27,34.27,24.24,24.24,0,0,0,34.27-34.27Z" />
    <path class="cls-1"
        d="M914.06,104a9.62,9.62,0,1,1,2.79-6.77A9.22,9.22,0,0,1,914.06,104Zm-13.95,81.83V113.25h14.35v72.53Z" />
</svg>